<?xml version="1.0" encoding="UTF-8" standalone="no"?>
<!-- Created with Inkscape (http://www.inkscape.org/) -->

<svg
   xmlns:dc="http://purl.org/dc/elements/1.1/"
   xmlns:cc="http://creativecommons.org/ns#"
   xmlns:rdf="http://www.w3.org/1999/02/22-rdf-syntax-ns#"
   xmlns:svg="http://www.w3.org/2000/svg"
   xmlns="http://www.w3.org/2000/svg"
   xmlns:sodipodi="http://sodipodi.sourceforge.net/DTD/sodipodi-0.dtd"
   xmlns:inkscape="http://www.inkscape.org/namespaces/inkscape"
   id="svg3135"
   version="1.1"
   inkscape:version="0.91 r13725"
   width="108.313"
   height="99.503914"
   xml:space="preserve"
   sodipodi:docname="iasd-logo.svg"><metadata
     id="metadata3141"><rdf:RDF><cc:Work
         rdf:about=""><dc:format>image/svg+xml</dc:format><dc:type
           rdf:resource="http://purl.org/dc/dcmitype/StillImage" /><dc:title></dc:title></cc:Work></rdf:RDF></metadata><defs
     id="defs3139" /><sodipodi:namedview
     pagecolor="#ffffff"
     bordercolor="#666666"
     borderopacity="1"
     objecttolerance="10"
     gridtolerance="10"
     guidetolerance="10"
     inkscape:pageopacity="0"
     inkscape:pageshadow="2"
     inkscape:window-width="1916"
     inkscape:window-height="1041"
     id="namedview3137"
     showgrid="false"
     inkscape:zoom="2.6799672"
     inkscape:cx="177.70332"
     inkscape:cy="41.790132"
     inkscape:window-x="1920"
     inkscape:window-y="37"
     inkscape:window-maximized="0"
     inkscape:current-layer="g3143"
     fit-margin-top="0"
     fit-margin-left="0"
     fit-margin-right="0"
     fit-margin-bottom="0" /><g
     id="g3143"
     inkscape:groupmode="layer"
     inkscape:label="ink_ext_XXXXXX"
     transform="matrix(1.25,0,0,-1.25,0,99.685551)"><path
       inkscape:connector-curvature="0"
       id="path3147"
       style="fill:#231f20;fill-opacity:1;fill-rule:nonzero;stroke:none"
       d="m 36.5914,10.0383 0,3.4969 4.9633,0 0,0.3289 c 0,3.5019 -1.6145,6.0656 -12.7371,4.1398 L 10.525,14.7449 0,0.145312 25.2574,4.625 c 7.5672,1.29961 14.2114,1.57031 16.2973,-4.446484 l 0,9.859784 -4.9633,0" /><path
       inkscape:connector-curvature="0"
       id="path3149"
       style="fill:#231f20;fill-opacity:1;fill-rule:nonzero;stroke:none"
       d="m 45.0059,0.178516 c 0,4.762894 2.8132,8.034374 8.557,13.778484 L 57.6098,18.0039 76.107,14.7449 86.6504,0.162109 62.3961,4.3457 C 54.1723,5.92461 47.2012,6.47656 45.0059,0.178516" /><path
       inkscape:connector-curvature="0"
       id="path3151"
       style="fill:#231f20;fill-opacity:1;fill-rule:nonzero;stroke:none"
       d="m 46.0309,13.543 c 1.8324,3.9316 5.7336,7.4863 7.9781,9.7293 l 1.5961,1.6222 c 6.7929,6.793 8.0984,9.6024 8.5101,14.2801 0.0192,0.2442 0.3692,-0.9164 0.4739,-1.7383 0.3504,-2.7562 0.1472,-4.7566 -0.7899,-7.5168 -1.4004,-4.1257 -4.7172,-7.4117 -9.0211,-11.7152 l -4.6812,-4.6613 -4.066,0" /><path
       inkscape:connector-curvature="0"
       id="path3153"
       style="fill:#231f20;fill-opacity:1;fill-rule:nonzero;stroke:none"
       d="m 49.975,70.502 c 0,0.0367 0.1133,0.057 0.1133,0 l 0,-5.4176 c 0,-4.8992 -6.2961,-10.5516 -8.8047,-13.0438 l -9.225,-9.2496 c -3.1891,-3.1894 -9.5738,-9.4875 -6.893,-15.564 0.0887,-0.2016 0.1707,-0.3758 -0.1699,-0.1336 -0.682,0.4843 -1.7164,2.1847 -1.9922,5.2929 -0.4906,5.5391 3.2856,10.4985 7.9438,15.1567 l 8.7988,8.8101 C 48.6703,65.2773 49.5406,66.85 49.975,70.502" /><path
       inkscape:connector-curvature="0"
       id="path3155"
       style="fill:#231f20;fill-opacity:1;fill-rule:nonzero;stroke:none"
       d="m 41.2836,42.7691 c 2.5086,2.4922 8.8047,8.1442 8.8047,13.0434 l 0,5.418 c 0,0.057 -0.1133,0.0367 -0.1133,0 -0.4344,-3.652 -1.3047,-5.2246 -10.2289,-14.1489 l -8.1738,-8.1871 c -2.9692,-2.9699 -5.693,-6.0832 -5.5672,-11.1093 0.0769,-3.0801 1.6258,-5.6329 3.9558,-6.2344 0.9586,-0.207 0.9004,-0.082 0.6723,0.0156 -3.2914,1.5535 -3.0547,7.4965 2.2656,12.8168 l 8.3848,8.3859" /><path
       inkscape:connector-curvature="0"
       id="path3157"
       style="fill:#231f20;fill-opacity:1;fill-rule:nonzero;stroke:none"
       d="m 31.0227,50.9633 c -6.793,-6.7922 -8.0989,-9.602 -8.5106,-14.2801 -0.0187,-0.2441 -0.3691,0.9164 -0.4734,1.7383 -0.3508,2.7562 -0.1477,4.7566 0.7894,7.5176 1.4004,4.125 4.7172,7.4117 9.0215,11.7152 l 7.8965,7.9098 c 8.9242,8.9246 9.7945,10.4968 10.2289,14.1488 0,0.0367 0.1133,0.057 0.1133,0 l 0,-5.4176 c 0,-4.8992 -6.2961,-10.5515 -8.8047,-13.0433 L 31.0227,50.9633" /><path
       inkscape:connector-curvature="0"
       id="path3159"
       style="fill:#231f20;fill-opacity:1;fill-rule:nonzero;stroke:none"
       d="m 45.1215,4.6543 c -0.0047,-0.04219 -0.1156,-0.04219 -0.1156,0 l 0,5.384 2.2539,0 C 45.9859,8.21172 45.3344,6.44531 45.1215,4.6543" /><path
       inkscape:connector-curvature="0"
       id="path3161"
       style="fill:#231f20;fill-opacity:1;fill-rule:nonzero;stroke:none"
       d="m 45.1387,13.5352 c -0.0047,-0.0411 -0.1157,-0.0422 -0.1157,0 l 0,5.4816 c 0,4.116 4.0352,8.568 8.0352,12.5418 l 2.5949,2.5934 c 2.0946,2.0941 8.4895,8.4023 5.8086,14.4789 -0.0887,0.2015 -0.1707,0.3757 0.1699,0.1336 0.6825,-0.4844 1.7164,-2.1848 1.9922,-5.293 0.491,-5.5383 -3.2855,-10.4985 -7.9437,-15.1567 L 53.2812,25.9047 C 47.4973,20.1199 45.573,17.5281 45.1387,13.5352" /><path
       inkscape:connector-curvature="0"
       id="path3163"
       style="fill:#231f20;fill-opacity:1;fill-rule:nonzero;stroke:none"
       d="m 45.1316,23.041 c -0.0046,-0.0422 -0.1148,-0.0422 -0.1148,0 l 0,5.5637 c 0,3.9262 3.8934,8.1625 5.7828,10.0519 l 2.9289,2.9235 c 5.3203,5.3203 5.557,11.2637 2.2656,12.8172 -0.2281,0.0968 -0.2863,0.2218 0.6723,0.0152 2.3301,-0.6016 3.8789,-3.1543 3.9563,-6.2344 C 60.748,43.152 58.0699,40.0586 55.1008,37.0887 L 52.7262,34.7148 C 47.7582,29.7469 45.5844,26.8441 45.1316,23.041" /></g></svg>