<?xml version="1.0" encoding="UTF-8" standalone="no"?>
<!-- Created with Inkscape (http://www.inkscape.org/) -->

<svg
   xmlns:dc="http://purl.org/dc/elements/1.1/"
   xmlns:cc="http://creativecommons.org/ns#"
   xmlns:rdf="http://www.w3.org/1999/02/22-rdf-syntax-ns#"
   xmlns:svg="http://www.w3.org/2000/svg"
   xmlns="http://www.w3.org/2000/svg"
   xmlns:sodipodi="http://sodipodi.sourceforge.net/DTD/sodipodi-0.dtd"
   xmlns:inkscape="http://www.inkscape.org/namespaces/inkscape"
   id="svg3135"
   version="1.1"
   inkscape:version="0.91 r13725"
   width="386.275"
   height="99.6875"
   xml:space="preserve"
   sodipodi:docname="iasd-wide.svg"><metadata
     id="metadata3141"><rdf:RDF><cc:Work
         rdf:about=""><dc:format>image/svg+xml</dc:format><dc:type
           rdf:resource="http://purl.org/dc/dcmitype/StillImage" /><dc:title /></cc:Work></rdf:RDF></metadata><defs
     id="defs3139" /><sodipodi:namedview
     pagecolor="#ffffff"
     bordercolor="#666666"
     borderopacity="1"
     objecttolerance="10"
     gridtolerance="10"
     guidetolerance="10"
     inkscape:pageopacity="0"
     inkscape:pageshadow="2"
     inkscape:window-width="956"
     inkscape:window-height="1041"
     id="namedview3137"
     showgrid="false"
     inkscape:zoom="0.9475115"
     inkscape:cx="188.14924"
     inkscape:cy="39.924663"
     inkscape:window-x="2880"
     inkscape:window-y="37"
     inkscape:window-maximized="0"
     inkscape:current-layer="g3143" /><g
     id="g3143"
     inkscape:groupmode="layer"
     inkscape:label="ink_ext_XXXXXX"
     transform="matrix(1.25,0,0,-1.25,0,99.6875)"><path
       inkscape:connector-curvature="0"
       id="path3147"
       style="fill:#231f20;fill-opacity:1;fill-rule:nonzero;stroke:none"
       d="m 36.5914,10.0383 0,3.4969 4.9633,0 0,0.3289 c 0,3.5019 -1.6145,6.0656 -12.7371,4.1398 L 10.525,14.7449 0,0.145312 25.2574,4.625 c 7.5672,1.29961 14.2114,1.57031 16.2973,-4.446484 l 0,9.859784 -4.9633,0" /><path
       inkscape:connector-curvature="0"
       id="path3149"
       style="fill:#231f20;fill-opacity:1;fill-rule:nonzero;stroke:none"
       d="m 45.0059,0.178516 c 0,4.762894 2.8132,8.034374 8.557,13.778484 L 57.6098,18.0039 76.107,14.7449 86.6504,0.162109 62.3961,4.3457 C 54.1723,5.92461 47.2012,6.47656 45.0059,0.178516" /><path
       inkscape:connector-curvature="0"
       id="path3151"
       style="fill:#231f20;fill-opacity:1;fill-rule:nonzero;stroke:none"
       d="m 46.0309,13.543 c 1.8324,3.9316 5.7336,7.4863 7.9781,9.7293 l 1.5961,1.6222 c 6.7929,6.793 8.0984,9.6024 8.5101,14.2801 0.0192,0.2442 0.3692,-0.9164 0.4739,-1.7383 0.3504,-2.7562 0.1472,-4.7566 -0.7899,-7.5168 -1.4004,-4.1257 -4.7172,-7.4117 -9.0211,-11.7152 l -4.6812,-4.6613 -4.066,0" /><path
       inkscape:connector-curvature="0"
       id="path3153"
       style="fill:#231f20;fill-opacity:1;fill-rule:nonzero;stroke:none"
       d="m 49.975,70.502 c 0,0.0367 0.1133,0.057 0.1133,0 l 0,-5.4176 c 0,-4.8992 -6.2961,-10.5516 -8.8047,-13.0438 l -9.225,-9.2496 c -3.1891,-3.1894 -9.5738,-9.4875 -6.893,-15.564 0.0887,-0.2016 0.1707,-0.3758 -0.1699,-0.1336 -0.682,0.4843 -1.7164,2.1847 -1.9922,5.2929 -0.4906,5.5391 3.2856,10.4985 7.9438,15.1567 l 8.7988,8.8101 C 48.6703,65.2773 49.5406,66.85 49.975,70.502" /><path
       inkscape:connector-curvature="0"
       id="path3155"
       style="fill:#231f20;fill-opacity:1;fill-rule:nonzero;stroke:none"
       d="m 41.2836,42.7691 c 2.5086,2.4922 8.8047,8.1442 8.8047,13.0434 l 0,5.418 c 0,0.057 -0.1133,0.0367 -0.1133,0 -0.4344,-3.652 -1.3047,-5.2246 -10.2289,-14.1489 l -8.1738,-8.1871 c -2.9692,-2.9699 -5.693,-6.0832 -5.5672,-11.1093 0.0769,-3.0801 1.6258,-5.6329 3.9558,-6.2344 0.9586,-0.207 0.9004,-0.082 0.6723,0.0156 -3.2914,1.5535 -3.0547,7.4965 2.2656,12.8168 l 8.3848,8.3859" /><path
       inkscape:connector-curvature="0"
       id="path3157"
       style="fill:#231f20;fill-opacity:1;fill-rule:nonzero;stroke:none"
       d="m 31.0227,50.9633 c -6.793,-6.7922 -8.0989,-9.602 -8.5106,-14.2801 -0.0187,-0.2441 -0.3691,0.9164 -0.4734,1.7383 -0.3508,2.7562 -0.1477,4.7566 0.7894,7.5176 1.4004,4.125 4.7172,7.4117 9.0215,11.7152 l 7.8965,7.9098 c 8.9242,8.9246 9.7945,10.4968 10.2289,14.1488 0,0.0367 0.1133,0.057 0.1133,0 l 0,-5.4176 c 0,-4.8992 -6.2961,-10.5515 -8.8047,-13.0433 L 31.0227,50.9633" /><path
       inkscape:connector-curvature="0"
       id="path3159"
       style="fill:#231f20;fill-opacity:1;fill-rule:nonzero;stroke:none"
       d="m 45.1215,4.6543 c -0.0047,-0.04219 -0.1156,-0.04219 -0.1156,0 l 0,5.384 2.2539,0 C 45.9859,8.21172 45.3344,6.44531 45.1215,4.6543" /><path
       inkscape:connector-curvature="0"
       id="path3161"
       style="fill:#231f20;fill-opacity:1;fill-rule:nonzero;stroke:none"
       d="m 45.1387,13.5352 c -0.0047,-0.0411 -0.1157,-0.0422 -0.1157,0 l 0,5.4816 c 0,4.116 4.0352,8.568 8.0352,12.5418 l 2.5949,2.5934 c 2.0946,2.0941 8.4895,8.4023 5.8086,14.4789 -0.0887,0.2015 -0.1707,0.3757 0.1699,0.1336 0.6825,-0.4844 1.7164,-2.1848 1.9922,-5.293 0.491,-5.5383 -3.2855,-10.4985 -7.9437,-15.1567 L 53.2812,25.9047 C 47.4973,20.1199 45.573,17.5281 45.1387,13.5352" /><path
       inkscape:connector-curvature="0"
       id="path3163"
       style="fill:#231f20;fill-opacity:1;fill-rule:nonzero;stroke:none"
       d="m 45.1316,23.041 c -0.0046,-0.0422 -0.1148,-0.0422 -0.1148,0 l 0,5.5637 c 0,3.9262 3.8934,8.1625 5.7828,10.0519 l 2.9289,2.9235 c 5.3203,5.3203 5.557,11.2637 2.2656,12.8172 -0.2281,0.0968 -0.2863,0.2218 0.6723,0.0152 2.3301,-0.6016 3.8789,-3.1543 3.9563,-6.2344 C 60.748,43.152 58.0699,40.0586 55.1008,37.0887 L 52.7262,34.7148 C 47.7582,29.7469 45.5844,26.8441 45.1316,23.041" /><g
       id="g3451"
       transform="translate(0,1.1873)"><path
         d="m 137.563,17.9543 c -0.113,0.56054 0.027,0.86797 0.307,0.86797 0.393,0 0.393,-0.33594 0.532,-0.92461 0.336,-1.28828 2.017,-4.201176 5.883,-4.201176 2.66,0 5.266,1.484376 5.266,4.425786 0,5.40623 -11.372,2.38085 -11.372,9.69143 0,3.5578 2.997,5.2656 6.217,5.2656 3.39,0 4.315,-1.0078 4.707,-1.0078 0.251,0 0.308,0.3078 0.587,0.3078 0.169,0 0.309,-0.0844 0.337,-0.3918 l 0.42,-3.8098 c 0.028,-0.2234 -0.028,-0.4199 -0.307,-0.4199 -0.309,0 -0.505,0.5883 -0.589,0.841 -0.84,2.4082 -2.886,3.6407 -5.35,3.6407 -2.213,0 -4.566,-1.0645 -4.566,-3.6407 0,-5.2668 11.372,-2.1855 11.372,-9.91599 0,-2.35351 -1.653,-5.88281 -8.011,-5.88281 -2.072,0 -4.622,1.03711 -4.733,1.54102 l -0.7,3.61328"
         style="fill:#231f20;fill-opacity:1;fill-rule:nonzero;stroke:none"
         id="path3165"
         inkscape:connector-curvature="0" /><path
         d="m 155.595,21.98555 c 0,-0.73047 -0.044,-0.73047 0.816,-0.73047 l 2.321,0 c 2.237,0 1.656,1.71952 2.171,1.71952 0.173,0 0.237,-0.2371 0.237,-0.40819 0,-0.75274 -0.042,-1.48321 -0.042,-2.17071 0,-0.55976 0.042,-1.11836 0.042,-1.69922 0,-0.19257 -0.086,-0.27929 -0.237,-0.27929 -0.666,0 0.066,1.89179 -1.741,1.89179 l -3.181,0 c -0.452,0 -0.386,-0.36445 -0.386,-0.6875 l 0,-3.95546 c 0,-1.26836 -0.172,-1.78399 1.633,-1.78399 4.965,0 5.696,2.21406 5.975,2.21406 0.151,0 0.172,-0.21523 0.172,-0.25781 0,-0.77383 -0.559,-1.52539 -1.074,-2.085155 -0.688,-0.773437 -1.161,-0.730469 -2.107,-0.730469 -1.633,0 -3.266,0.128906 -4.9,0.08594 -0.86,-0.02149 -1.763,-0.08594 -2.622,-0.08594 -0.194,0 -0.323,0.04297 -0.323,0.214844 0.043,0.257812 0.257,0.214844 0.945,0.558594 0.56,0.257816 0.602,0.859376 0.602,1.869926 l 0,9.80198 c 0,0.9668 0,1.9992 -1.161,2.1707 -0.172,0.0429 -0.644,0.0859 -0.644,0.3437 0,0.1723 0.129,0.259 0.753,0.259 4.062,0 5.179,-0.0867 6.082,-0.0867 0.43,0 2.408,0.0867 3.074,0.0867 0.172,0 0.215,-0.2156 0.215,-0.4738 0,-2.3856 -0.301,-2.5574 -0.43,-2.5574 -0.515,0 -0.172,1.0312 -0.515,1.5253 -0.56,0.7317 -2.795,0.6028 -3.655,0.6028 -2.064,0 -2.02,0.0855 -2.02,-1.3547 l 0,-3.99805"
         style="fill:#231f20;fill-opacity:1;fill-rule:nonzero;stroke:none"
         id="path3167"
         inkscape:connector-curvature="0" /><path
         d="m 168.879,26.0695 c 0,0.1504 0.086,0.9676 -0.215,0.9883 l -3.504,0 c -1.333,0 -1.376,-0.3223 -1.763,-1.5039 -0.064,-0.2148 -0.085,-0.4941 -0.366,-0.4941 -0.129,0 -0.215,0.1504 -0.215,0.2578 l 0.237,2.0847 c 0.022,0.2579 0,0.8391 0.387,0.8391 1.676,0 3.331,-0.0867 6.105,-0.0867 3.891,0 5.868,0.0867 6.298,0.0867 0.494,0 0.601,-0.1301 0.623,-0.6242 l 0.107,-1.7195 c 0.022,-0.2149 0.043,-0.4727 -0.236,-0.4727 -0.795,0 0.365,1.6328 -1.826,1.6328 l -3.074,0 c -0.968,0 -0.86,0.086 -0.86,-1.0527 l 0,-10.96213 c 0,-1.80547 1.741,-1.09649 1.741,-1.762501 0,-0.06445 0.022,-0.257813 -0.194,-0.257813 -0.516,0 -1.117,0.08594 -1.741,0.08594 -2.407,0 -2.816,-0.08594 -2.945,-0.08594 -0.193,0 -0.257,0.06445 -0.257,0.279297 0,0.515627 1.698,0.300781 1.698,1.590627 l 0,11.17692"
         style="fill:#231f20;fill-opacity:1;fill-rule:nonzero;stroke:none"
         id="path3169"
         inkscape:connector-curvature="0" /><path
         d="m 178.823,26.3918 c -0.02,1.5691 -1.741,1.1394 -1.741,1.6121 0,0.1934 0.043,0.2375 0.216,0.2375 0.795,0 1.568,-0.0867 2.364,-0.0867 0.666,0 1.332,0.0867 1.999,0.0867 0.344,0 0.408,-0.0441 0.408,-0.2156 0,-0.516 -1.548,-0.0219 -1.548,-1.634 l 0,-11.54219 c 0,-1.461719 1.914,-0.96758 1.914,-1.61211 0,-0.150391 -0.065,-0.214844 -0.43,-0.214844 -0.494,0 -1.419,0.08594 -2.343,0.08594 -1.31,0 -1.763,-0.08594 -2.063,-0.08594 -0.388,0 -0.453,0.107422 -0.453,0.322266 0,0.623048 1.677,-0.08594 1.677,2.041798 l 0,11.00508"
         style="fill:#231f20;fill-opacity:1;fill-rule:nonzero;stroke:none"
         id="path3171"
         inkscape:connector-curvature="0" /><path
         d="m 200.93,15.00039 c 0.107,-1.805859 1.698,-1.01094 1.698,-1.76289 0,-0.214844 -0.279,-0.214844 -0.517,-0.214844 -0.408,0 -1.16,0.08594 -2.02,0.08594 -0.666,0 -1.354,-0.08594 -1.892,-0.08594 -0.192,0 -0.235,0.107422 -0.235,0.19336 0,0.644534 1.353,0.171875 1.332,1.762504 l -0.215,8.33988 c 0,0.5371 -0.107,0.839 -0.236,0.839 -0.151,0 -0.344,-0.1941 -0.559,-0.6457 l -4.45,-9.07029 c -0.107,-0.19414 -0.451,-1.075004 -0.666,-1.075004 -0.215,0 -0.365,0.472654 -0.43,0.623044 l -4.579,9.58675 c -0.063,0.1718 -0.171,0.2367 -0.258,0.2367 -0.063,0 -0.129,-0.1078 -0.149,-0.3227 l -0.259,-7.54489 c -0.107,-2.858201 1.935,-1.91172 1.935,-2.686326 0,-0.214843 -0.237,-0.236328 -0.537,-0.236328 -0.28,0 -1.247,0.08594 -1.892,0.08594 -1.118,0 -1.483,-0.08594 -1.87,-0.08594 -0.151,0 -0.215,0.107422 -0.215,0.257813 0,0.731251 1.376,-0.150391 1.526,2.084761 0.258,3.50313 0.516,5.78243 0.516,8.06057 0,5.0519 -2.042,3.8476 -2.042,4.5781 0,0.1934 0.172,0.2375 0.365,0.2375 0.388,0 0.774,-0.0867 1.183,-0.0867 0.387,0 0.773,0.0867 1.16,0.0867 0.302,0 0.345,-0.366 0.452,-0.6027 l 5.115,-10.91878 c 0.237,-0.45234 0.323,-0.6457 0.474,-0.6457 0.106,0 0.321,0.45156 0.665,1.16133 l 5.116,10.27425 c 0.13,0.2367 0.302,0.7519 0.56,0.7316 0.214,0 0.902,-0.0867 1.01,-0.0867 0.494,0 0.687,0.0867 1.032,0.0867 0.128,0 0.214,-0.1301 0.214,-0.259 0,-0.6875 -1.719,0.2375 -1.633,-2.3211 l 0.301,-10.66091"
         style="fill:#231f20;fill-opacity:1;fill-rule:nonzero;stroke:none"
         id="path3173"
         inkscape:connector-curvature="0" /><path
         d="m 205.077,21.34102 c 0,-3.97657 2.602,-7.824223 6.858,-7.824223 3.138,0 5.653,2.515623 5.653,6.491013 0,3.91209 -2.644,7.71679 -6.835,7.71679 -3.612,0 -5.676,-2.9871 -5.676,-6.38358 z m -1.568,-0.62383 c 0,4.47151 3.481,7.71681 7.887,7.71681 4.386,0 7.76,-3.1594 7.76,-7.60978 0,-4.83594 -3.331,-7.951954 -8.125,-7.951954 -4.664,0 -7.522,3.310544 -7.522,7.844924"
         style="fill:#231f20;fill-opacity:1;fill-rule:nonzero;stroke:none"
         id="path3175"
         inkscape:connector-curvature="0" /><path
         d="m 227.995,17.04805 c 0,-0.44727 -0.084,-1.78828 0.168,-2.04024 0.922,-0.9207 3.046,-1.256638 4.303,-1.256638 3.968,0 7.741,2.124218 7.741,8.578128 0,6.2043 -4.137,9.7246 -9.445,9.7519 -2.656,0 -2.767,-0.4464 -2.767,-1.7597 l 0,-13.27345 z m -2.208,12.74215 c 0,2.8504 -2.291,1.9563 -2.291,2.711 0,0.1953 0.224,0.2793 0.392,0.2793 0.866,0 1.676,-0.1114 2.514,-0.1114 1.844,0 3.661,0.1114 6.064,0.1114 4.946,0 9.808,-3.7442 9.808,-8.9141 0,-6.42695 -3.045,-10.869916 -10.786,-10.869916 -1.425,0 -2.849,0.11211 -4.275,0.11211 -0.252,0 -2.935,-0.11211 -3.13,-0.11211 -0.223,0 -0.279,0.11211 -0.279,0.279297 0,0.643359 1.983,-0.05586 1.983,2.599609 l 0,13.91481"
         style="fill:#231f20;fill-opacity:1;fill-rule:nonzero;stroke:none"
         id="path3177"
         inkscape:connector-curvature="0" /><path
         d="m 245.36,26.3918 c -0.02,1.5691 -1.741,1.1394 -1.741,1.6121 0,0.1934 0.043,0.2375 0.215,0.2375 0.796,0 1.569,-0.0867 2.365,-0.0867 0.666,0 1.332,0.0867 1.999,0.0867 0.344,0 0.408,-0.0441 0.408,-0.2156 0,-0.516 -1.547,-0.0219 -1.547,-1.634 l 0,-11.54219 c 0,-1.461719 1.914,-0.96758 1.914,-1.61211 0,-0.150391 -0.066,-0.214844 -0.431,-0.214844 -0.494,0 -1.419,0.08594 -2.343,0.08594 -1.31,0 -1.762,-0.08594 -2.063,-0.08594 -0.388,0 -0.452,0.107422 -0.452,0.322266 0,0.623048 1.676,-0.08594 1.676,2.041798 l 0,11.00508"
         style="fill:#231f20;fill-opacity:1;fill-rule:nonzero;stroke:none"
         id="path3179"
         inkscape:connector-curvature="0" /><path
         d="m 253.646,20.30898 c -0.151,-0.30117 0,-0.3871 0.28,-0.3871 l 4.255,0 c 0.472,0 0.451,0.15156 0.343,0.43085 l -2.105,5.17967 c -0.108,0.2578 -0.216,0.2578 -0.345,0 l -2.428,-5.22342 z m 5.803,-2.1496 c -0.215,0.49414 -0.344,0.81718 -0.945,0.81718 l -4.73,0 c -0.408,0 -0.795,0 -1.009,-0.45195 l -1.376,-3.00899 c -0.065,-0.15039 -0.151,-0.47265 -0.151,-0.75273 0,-1.503906 1.527,-0.85937 1.527,-1.417968 0,-0.386719 -0.301,-0.322266 -0.581,-0.322266 -0.602,0 -1.204,0.08594 -1.805,0.08594 -0.581,0 -1.161,-0.08594 -1.721,-0.08594 -0.129,0 -0.193,0.107422 -0.193,0.236328 0,0.451172 1.011,0.08594 1.569,1.311326 l 5.138,10.96209 c 1.268,2.709 1.333,3.0528 1.611,3.0528 0.238,0 0.388,-0.6243 0.452,-0.7961 l 4.471,-11.06918 c 0.322,-0.79609 0.58,-1.69844 1.075,-2.45117 0.645,-0.988281 1.892,-0.515625 1.892,-1.052734 0,-0.19336 -0.152,-0.19336 -0.302,-0.19336 -0.881,0 -1.762,0.08594 -2.643,0.08594 -0.581,0 -1.162,-0.08594 -1.742,-0.08594 -0.129,0 -0.472,0 -0.472,0.214844 0,0.515625 1.289,0.300781 1.289,1.11719 0,0.47265 -0.45,1.46172 -0.666,2.04179 l -0.688,1.7629"
         style="fill:#231f20;fill-opacity:1;fill-rule:nonzero;stroke:none"
         id="path3181"
         inkscape:connector-curvature="0" /><path
         d="m 265.681,52.7824 c 0.797,0 1.547,-0.0937 2.344,-0.0937 0.704,0 1.361,0.0937 2.017,0.0937 0.328,0 0.422,-0.0469 0.422,-0.1875 0,-0.516 -1.548,-0.0469 -1.548,-1.6418 l 0,-11.5363 c 0,-1.5012 1.877,-0.9852 1.877,-1.6422 0,-0.1406 -0.048,-0.1875 -0.423,-0.1875 -0.469,0 -1.406,0.0469 -2.345,0.0469 -1.312,0 -1.735,-0.0469 -2.063,-0.0469 -0.375,0 -0.422,0.0938 -0.422,0.3285 0,0.6102 1.642,-0.0941 1.642,2.0168 l 0,11.0207 c 0,1.5481 -1.737,1.1258 -1.737,1.5949 0,0.1875 0.047,0.2344 0.236,0.2344"
         style="fill:#231f20;fill-opacity:1;fill-rule:nonzero;stroke:none"
         id="path3183"
         inkscape:connector-curvature="0" /><path
         d="m 231.633,45.7945 c 2.251,0 1.688,1.7356 2.204,1.7356 0.141,0 0.234,-0.2352 0.234,-0.4227 0,-0.7504 -0.047,-1.4535 -0.047,-2.157 0,-0.5625 0.047,-1.1254 0.047,-1.6887 0,-0.1875 -0.093,-0.2812 -0.234,-0.2812 -0.656,0 0.047,1.8761 -1.735,1.8761 l -3.19,0 c -0.468,0 -0.375,-0.375 -0.375,-0.7035 l 0,-3.9394 c 0,-1.2664 -0.187,-1.7821 1.595,-1.7821 4.972,0 5.722,2.2043 6.004,2.2043 0.139,0 0.139,-0.1875 0.139,-0.2343 0,-0.7973 -0.562,-1.5481 -1.031,-2.111 -0.704,-0.7496 -1.173,-0.7035 -2.11,-0.7035 -1.642,0 -3.283,0.0938 -4.925,0.0469 -0.844,0 -1.735,-0.0469 -2.626,-0.0469 -0.187,0 -0.328,0.0469 -0.328,0.1875 0.047,0.2816 0.281,0.2348 0.938,0.5637 0.563,0.2808 0.61,0.8433 0.61,1.8754 l 0,9.8015 c 0,0.9852 0,2.0168 -1.126,2.1575 -0.188,0.0468 -0.656,0.0941 -0.656,0.3753 0,0.1407 0.14,0.2344 0.75,0.2344 4.033,0 5.158,-0.0937 6.096,-0.0937 0.423,0 2.393,0.0937 3.048,0.0937 0.189,0 0.235,-0.1875 0.235,-0.4687 0,-2.3922 -0.328,-2.5328 -0.422,-2.5328 -0.515,0 -0.188,1.032 -0.515,1.5011 -0.564,0.75 -2.815,0.6094 -3.659,0.6094 -2.064,0 -2.017,0.0938 -2.017,-1.3602 l 0,-3.9863 c 0,-0.7504 -0.047,-0.7504 0.798,-0.7504 l 2.298,0"
         style="fill:#231f20;fill-opacity:1;fill-rule:nonzero;stroke:none"
         id="path3185"
         inkscape:connector-curvature="0" /><path
         d="m 236.369,52.7824 c 0.375,0 0.704,-0.0937 1.032,-0.0937 0.328,0 0.657,0.0937 0.985,0.0937 0.234,0 0.422,-0.3281 0.562,-0.4687 L 249.22,40.8703 c 0.093,-0.1406 0.187,-0.2344 0.234,-0.2344 0.047,0 0.094,0.0938 0.094,0.2344 l 0,9.0043 c 0,2.8141 -2.392,1.9699 -2.392,2.7203 0,0.1406 0.093,0.1875 0.235,0.1875 0.609,0 1.265,-0.0937 1.922,-0.0937 0.75,0 1.689,0.0937 2.205,0.0937 0.093,0 0.187,-0.0469 0.187,-0.1875 0,-0.5629 -1.266,-0.1879 -1.266,-1.7355 l 0,-12.4278 c 0,-0.657 0,-0.9382 -0.187,-0.9382 -0.142,0 -0.376,0.0937 -0.798,0.6097 l -9.239,10.4117 c -0.046,0 -0.328,0.375 -0.469,0.375 -0.094,0 -0.141,-0.0468 -0.141,-0.4687 l 0,-8.8168 c 0,-1.9234 1.876,-1.1727 1.876,-1.7359 0,-0.1399 0,-0.2813 -0.234,-0.2813 -0.516,0 -1.126,0.0469 -2.157,0.0469 -0.75,0 -1.876,-0.0469 -2.017,-0.0469 -0.282,0 -0.282,0.0938 -0.282,0.2344 0,0.7508 1.877,-0.1875 1.877,2.8144 l 0,7.9258 c 0,4.4551 -2.579,3.236 -2.579,4.0332 0,0.0938 0.186,0.1875 0.28,0.1875"
         style="fill:#231f20;fill-opacity:1;fill-rule:nonzero;stroke:none"
         id="path3187"
         inkscape:connector-curvature="0" /><path
         d="m 254.003,51.6102 c -1.36,0 -1.407,-0.3282 -1.782,-1.5012 -0.094,-0.2344 -0.094,-0.5156 -0.375,-0.5156 -0.141,0 -0.188,0.1875 -0.188,0.2812 l 0.235,2.0637 c 0,0.2812 0,0.8441 0.375,0.8441 1.688,0 3.33,-0.0937 6.096,-0.0937 3.893,0 5.863,0.0937 6.284,0.0937 0.517,0 0.61,-0.1406 0.657,-0.6097 l 0.094,-1.7348 c 0,-0.1875 0.046,-0.4695 -0.234,-0.4695 -0.798,0 0.375,1.6418 -1.829,1.6418 l -3.096,0 c -0.797,0 -0.844,-0.0469 -0.844,-1.0321 l 0,-10.9738 c 0,-1.8297 1.736,-1.1258 1.736,-1.7828 0,-0.0469 0.046,-0.2344 -0.188,-0.2344 -0.516,0 -1.126,0.0469 -1.736,0.0469 -2.392,0 -2.813,-0.0469 -2.954,-0.0469 -0.188,0 -0.234,0.0469 -0.234,0.2813 0,0.5164 1.688,0.2816 1.688,1.5953 l 0,11.1617 c 0,0.1402 0.047,0.9848 -0.281,0.9848 l -3.424,0"
         style="fill:#231f20;fill-opacity:1;fill-rule:nonzero;stroke:none"
         id="path3189"
         inkscape:connector-curvature="0" /><path
         d="m 218.548,38.4785 c -0.234,-0.5629 -0.375,-1.2664 -0.703,-1.2664 -0.375,0 -0.61,0.9379 -0.797,1.3602 l -5.3,12.5683 c -0.516,1.2664 -1.687,0.8914 -1.687,1.3606 0,0.1875 0.14,0.2812 0.328,0.2812 0.656,0 1.312,-0.0937 1.968,-0.0937 0.564,0 1.408,0.0937 1.69,0.0937 0.14,0 0.28,-0.0937 0.28,-0.1875 0.047,-0.3281 -0.844,-0.3281 -0.844,-1.1254 0,-0.2816 0.094,-0.6101 0.188,-0.8441 l 3.752,-8.8172 c 0.515,-1.1723 0.609,-1.6414 0.845,-1.6414 0.234,0 0.28,0.3285 0.421,0.6098 l 3.706,9.1918 c 0.14,0.3281 0.42,1.032 0.328,1.4543 0,0.9843 -1.408,0.6093 -1.408,1.0785 0,0.2343 0.141,0.2812 0.329,0.2812 0.469,0 0.938,-0.0937 1.454,-0.0937 1.032,0 1.313,0.0937 1.64,0.0937 0.236,0 0.376,-0.0937 0.376,-0.2812 0,-0.4692 -0.609,0.0937 -1.219,-1.3606 l -5.347,-12.6621"
         style="fill:#231f20;fill-opacity:1;fill-rule:nonzero;stroke:none"
         id="path3191"
         inkscape:connector-curvature="0" /><path
         d="m 187.455,54.0953 -3.236,-6.8941 c -0.188,-0.4215 0,-0.5157 0.376,-0.5157 l 5.628,0 c 0.656,0 0.609,0.1875 0.468,0.5625 l -2.767,6.8473 c -0.141,0.3758 -0.281,0.3758 -0.469,0 z m 12.85,-3.1891 0,-10.2234 c 0,-0.3281 -0.047,-1.3598 0.14,-1.548 0.704,-0.7032 2.346,-0.9848 3.33,-0.9848 3.049,0 5.956,1.6418 5.956,6.6129 0,4.7836 -3.188,7.4566 -7.268,7.5039 -2.065,0 -2.158,-0.3754 -2.158,-1.3606 z M 199.742,37.634 c -0.14,0 -1.313,-0.0469 -1.969,-0.0469 -1.173,0 -1.877,0.0469 -2.814,0.0469 -0.798,0 -1.548,-0.093 -2.345,-0.093 -0.14,0 -0.61,0 -0.61,0.2805 0,0.7043 1.688,0.4226 1.688,1.5015 0,0.6094 -0.562,1.9223 -0.843,2.6727 l -0.938,2.3449 c -0.282,0.6567 -0.423,1.0789 -1.22,1.0789 l -6.284,0 c -0.563,0 -1.079,0 -1.36,-0.6097 l -1.782,-3.9864 c -0.094,-0.1875 -0.235,-0.6097 -0.235,-0.9847 0,-1.9703 2.017,-1.1254 2.017,-1.8762 0,-0.516 -0.375,-0.4215 -0.75,-0.4215 -0.798,0 -1.595,0.093 -2.393,0.093 -0.75,0 -1.548,-0.093 -2.298,-0.093 -0.14,0 -0.234,0.1399 -0.234,0.3274 0,0.5632 1.314,0.0941 2.064,1.7359 l 6.799,14.491 c 1.689,3.6113 1.783,4.0801 2.158,4.0801 0.329,0 0.516,-0.8438 0.61,-1.0785 l 5.909,-14.6789 c 0.422,-1.0317 0.75,-2.2043 1.407,-3.2364 0.469,-0.6558 0.891,-0.891 1.454,-0.891 0.468,0 0.843,0.5629 0.843,1.5012 l 0,10.6926 c 0,2.2043 -1.734,1.5008 -1.734,2.1105 0,0.1406 0.14,0.1875 0.281,0.1875 0.656,0 1.314,-0.0937 1.923,-0.0937 1.454,0 2.813,0.0937 4.689,0.0937 3.799,0 7.551,-2.8609 7.551,-6.8472 0,-4.9243 -2.345,-8.3481 -8.301,-8.3481 -1.126,0 -2.204,0.0469 -3.283,0.0469"
         style="fill:#231f20;fill-opacity:1;fill-rule:nonzero;stroke:none"
         id="path3193"
         inkscape:connector-curvature="0" /><path
         d="m 295.602,52.1727 0.093,-1.7348 c 0,-0.1875 0.047,-0.4695 -0.234,-0.4695 -0.798,0 0.375,1.6418 -1.829,1.6418 l -3.096,0 c -0.845,0 -0.845,-0.0469 -0.845,-1.0321 l 0,-10.9738 c 0,-1.8297 1.737,-1.1258 1.737,-1.7828 0,-0.0469 0.046,-0.2344 -0.188,-0.2344 -0.516,0 -1.126,0.0469 -1.735,0.0469 -2.392,0 -2.815,-0.0469 -2.954,-0.0469 -0.189,0 -0.236,0.0469 -0.236,0.2813 0,0.5164 1.689,0.2816 1.689,1.5953 l 0,11.1617 c 0,0.1402 0.047,0.9848 -0.281,0.9848 l -4.455,0 c -1.314,0 -1.267,-0.4696 -1.267,-1.22 0,-0.2343 0.187,-1.1722 -0.234,-1.1722 -0.235,0 -0.375,0.4691 -0.469,0.6566 -0.657,1.8293 -2.158,2.4856 -4.033,2.4856 -1.737,0 -3.518,-0.8438 -3.518,-2.8137 0,-4.0332 8.723,-1.6883 8.723,-7.5977 0,-1.8289 -1.267,-4.5492 -6.144,-4.5492 -1.595,0 -3.564,0.7977 -3.657,1.2195 l -0.517,2.7672 c -0.093,0.4219 0,0.6563 0.235,0.6563 0.282,0 0.282,-0.2813 0.422,-0.7035 0.235,-0.9844 1.547,-3.236 4.502,-3.236 2.063,0 4.033,1.1254 4.033,3.4239 0,4.1269 -8.723,1.8292 -8.723,7.4097 0,2.7203 2.298,4.0332 4.783,4.0332 2.58,0 3.284,-0.7504 3.612,-0.7504 0.328,0 0.376,0.5629 0.797,0.5629 1.689,0 4.081,-0.0937 6.847,-0.0937 3.893,0 5.862,0.0937 6.284,0.0937 0.517,0 0.61,-0.1406 0.658,-0.6097"
         style="fill:#231f20;fill-opacity:1;fill-rule:nonzero;stroke:none"
         id="path3195"
         inkscape:connector-curvature="0" /><path
         d="m 298.023,44.8621 c -0.149,-0.3 0,-0.3859 0.28,-0.3859 l 4.242,0 c 0.472,0 0.45,0.15 0.343,0.4289 l -2.1,5.164 c -0.107,0.2567 -0.215,0.2567 -0.343,0 l -2.422,-5.207 z m 5.786,-2.1426 c -0.214,0.4926 -0.343,0.8141 -0.943,0.8141 l -4.714,0 c -0.407,0 -0.793,0 -1.006,-0.45 l -1.373,-3 c -0.063,-0.1496 -0.149,-0.4711 -0.149,-0.7496 0,-1.5 1.522,-0.8574 1.522,-1.4145 0,-0.3859 -0.301,-0.3207 -0.58,-0.3207 -0.599,0 -1.2,0.0852 -1.798,0.0852 -0.58,0 -1.159,-0.0852 -1.715,-0.0852 -0.129,0 -0.194,0.1063 -0.194,0.2352 0,0.45 1.008,0.0855 1.565,1.3066 l 5.121,10.9285 c 1.265,2.6997 1.329,3.0422 1.607,3.0422 0.236,0 0.386,-0.6215 0.451,-0.7929 l 4.456,-11.0344 c 0.322,-0.793 0.579,-1.693 1.072,-2.443 0.642,-0.9863 1.885,-0.514 1.885,-1.05 0,-0.1922 -0.15,-0.1922 -0.3,-0.1922 -0.878,0 -1.757,0.0852 -2.636,0.0852 -0.578,0 -1.157,-0.0852 -1.735,-0.0852 -0.129,0 -0.472,0 -0.472,0.2141 0,0.5141 1.286,0.2996 1.286,1.1141 0,0.471 -0.45,1.457 -0.665,2.0351 l -0.685,1.7574"
         style="fill:#231f20;fill-opacity:1;fill-rule:nonzero;stroke:none"
         id="path3197"
         inkscape:connector-curvature="0" /><path
         d="m 102.628,16.14375 c 0,-0.34375 -0.065,-1.37695 0.129,-1.57148 0.711,-0.70977 2.347,-0.968754 3.315,-0.968754 3.057,0 5.963,1.635934 5.963,6.608594 0,4.77929 -3.186,7.49099 -7.275,7.51249 -2.046,0 -2.132,-0.3445 -2.132,-1.3562 l 0,-10.22465 z m -1.7,9.81645 c 0,2.1953 -1.7655,1.5058 -1.7655,2.0878 0,0.1504 0.1719,0.2149 0.3016,0.2149 0.6669,0 1.2909,-0.0859 1.9369,-0.0859 1.421,0 2.82,0.0859 4.671,0.0859 3.81,0 7.556,-2.884 7.556,-6.8672 0,-4.95039 -2.347,-8.373044 -8.309,-8.373044 -1.098,0 -2.196,0.08594 -3.294,0.08594 -0.193,0 -2.2598,-0.08594 -2.4105,-0.08594 -0.1719,0 -0.2153,0.08594 -0.2153,0.214844 0,0.494922 1.5288,-0.04219 1.5288,2.00195 l 0,10.72075"
         style="fill:#231f20;fill-opacity:1;fill-rule:nonzero;stroke:none"
         id="path3199"
         inkscape:connector-curvature="0" /><path
         d="m 116.996,21.35352 c 0,-3.98321 2.606,-7.835942 6.867,-7.835942 3.144,0 5.661,2.518752 5.661,6.501172 0,3.91795 -2.646,7.72775 -6.844,7.72775 -3.617,0 -5.684,-2.9926 -5.684,-6.39298 z m -1.57,-0.625 c 0,4.47768 3.486,7.72768 7.9,7.72768 4.391,0 7.77,-3.164 7.77,-7.61909 0,-4.84375 -3.336,-7.964844 -8.137,-7.964844 -4.67,0 -7.533,3.315624 -7.533,7.856254"
         style="fill:#231f20;fill-opacity:1;fill-rule:nonzero;stroke:none"
         id="path3201"
         inkscape:connector-curvature="0" /><path
         d="m 101.458,54.925 c -0.028,2.0359 -2.2592,1.4785 -2.2592,2.0918 0,0.2508 0.0563,0.307 0.2785,0.307 1.0327,0 2.0367,-0.1117 3.0677,-0.1117 0.865,0 1.73,0.1117 2.595,0.1117 0.446,0 0.529,-0.0562 0.529,-0.2793 0,-0.6687 -2.008,-0.0277 -2.008,-2.1195 l 0,-14.9758 c 0,-1.8965 2.483,-1.2547 2.483,-2.0918 0,-0.1953 -0.084,-0.2781 -0.558,-0.2781 -0.642,0 -1.841,0.1113 -3.041,0.1113 -1.701,0 -2.286,-0.1113 -2.6766,-0.1113 -0.5024,0 -0.5856,0.1387 -0.5856,0.418 0,0.8086 2.1752,-0.1114 2.1752,2.6492 l 0,14.2785"
         style="fill:#231f20;fill-opacity:1;fill-rule:nonzero;stroke:none"
         id="path3203"
         inkscape:connector-curvature="0" /><path
         d="m 122.012,45.5852 c 0.172,0 0.579,0.0855 0.579,-0.1934 0,-0.4504 -1.095,0.043 -1.095,-1.3945 l 0,-4.3758 c -2.209,-0.7082 -2.788,-2.1672 -6.606,-2.1672 -4.742,0 -7.681,2.9391 -7.681,7.7016 0,4.6339 3.477,7.83 8.023,7.83 3.712,0 4.785,-1.4589 5.385,-1.4589 0.237,0 0.322,0.3863 0.559,0.3863 0.3,0 0.214,-0.3219 0.235,-0.4934 l 0.214,-2.8105 c 0,-0.1711 -0.021,-0.386 -0.235,-0.386 -0.558,0 -1.524,4.1407 -6.586,4.1407 -3.862,0 -5.792,-3.261 -5.792,-6.8004 0,-3.7973 2.187,-7.4231 6.328,-7.4231 1.952,0 4.463,0.9656 4.463,2.7891 l 0,3.3254 c 0,1.0078 -1.867,0.5578 -1.867,1.0937 0,0.2789 0.299,0.2364 0.493,0.2364 l 3.583,0"
         style="fill:#231f20;fill-opacity:1;fill-rule:nonzero;stroke:none"
         id="path3205"
         inkscape:connector-curvature="0" /><path
         d="m 127.642,45.8426 c 0,-0.4078 1.33,-0.3004 2.338,-0.3004 0.922,0 2.982,0.3855 2.982,3.0465 0,2.6164 -1.995,3.4965 -4.098,3.4965 -0.772,0 -1.222,0.0429 -1.222,-0.7942 l 0,-5.4484 z m 7.808,-5.8996 c 1.545,-2.3598 2.597,-1.566 2.597,-2.0805 0,-0.2578 -1.202,-0.2578 -1.395,-0.2578 -1.566,0 -2.403,1.0937 -3.218,2.3168 l -2.381,3.7539 c -0.773,1.2016 -0.45,1.1375 -2.854,1.1375 -0.685,0 -0.557,-0.3863 -0.557,-0.6008 l 0,-4.5269 c 0,-1.8442 2.231,-1.1797 2.231,-1.9094 0,-0.2141 -0.193,-0.1711 -0.365,-0.1711 -0.193,0 -0.686,0.0859 -2.467,0.0859 -0.814,0 -1.63,-0.0859 -2.445,-0.0859 -0.129,0 -0.215,0.1074 -0.215,0.2363 0,0.536 1.566,0.2352 1.566,1.8656 l 0,10.9196 c 0,2.0593 -1.844,1.1797 -1.844,1.909 0,0.1289 0.17,0.2574 0.428,0.2574 0.386,0 0.28,-0.0856 1.372,-0.0856 1.245,0 2.468,0.0856 3.583,0.0856 0.344,0 5.084,0.4293 5.084,-3.711 0,-1.673 -1.201,-3.1105 -2.703,-3.7113 l 3.583,-5.4273"
         style="fill:#231f20;fill-opacity:1;fill-rule:nonzero;stroke:none"
         id="path3207"
         inkscape:connector-curvature="0" /><path
         d="m 141.628,46.55 c 0,-0.7289 -0.044,-0.7289 0.815,-0.7289 l 2.317,0 c 2.23,0 1.651,1.716 2.166,1.716 0.173,0 0.236,-0.2363 0.236,-0.4074 0,-0.7512 -0.043,-1.4805 -0.043,-2.1672 0,-0.5574 0.043,-1.1152 0.043,-1.6941 0,-0.1934 -0.085,-0.2793 -0.236,-0.2793 -0.665,0 0.064,1.8879 -1.738,1.8879 l -3.174,0 c -0.451,0 -0.386,-0.3645 -0.386,-0.6864 l 0,-3.9472 c 0,-1.2657 -0.172,-1.7809 1.63,-1.7809 4.956,0 5.685,2.2094 5.964,2.2094 0.15,0 0.172,-0.2141 0.172,-0.2571 0,-0.7722 -0.558,-1.523 -1.074,-2.0808 -0.685,-0.7723 -1.158,-0.7293 -2.101,-0.7293 -1.631,0 -3.262,0.1289 -4.892,0.0859 -0.858,-0.0215 -1.759,-0.0859 -2.617,-0.0859 -0.192,0 -0.321,0.043 -0.321,0.2148 0.043,0.2567 0.257,0.2141 0.943,0.5575 0.558,0.2574 0.601,0.8582 0.601,1.8664 l 0,9.7824 c 0,0.9652 0,1.9949 -1.159,2.1664 -0.171,0.043 -0.643,0.0859 -0.643,0.343 0,0.1718 0.129,0.2574 0.751,0.2574 4.054,0 5.17,-0.0856 6.07,-0.0856 0.43,0 2.403,0.0856 3.069,0.0856 0.17,0 0.214,-0.2145 0.214,-0.4715 0,-2.3816 -0.3,-2.5527 -0.429,-2.5527 -0.515,0 -0.171,1.0296 -0.515,1.5226 -0.558,0.7297 -2.789,0.6008 -3.646,0.6008 -2.061,0 -2.017,0.0859 -2.017,-1.3516 l 0,-3.9902"
         style="fill:#231f20;fill-opacity:1;fill-rule:nonzero;stroke:none"
         id="path3209"
         inkscape:connector-curvature="0" /><path
         d="m 153.106,50.4762 c 0,2.1453 -2.081,1.5015 -2.081,2.0804 0,0.1719 0.108,0.236 0.323,0.236 0.9,0 1.35,-0.0856 2.316,-0.0856 1.009,0 1.501,0.0856 1.995,0.0856 0.214,0 0.407,-0.0641 0.407,-0.3004 0,-0.4715 -1.265,0.1293 -1.265,-1.5442 l 0,-11.3914 c 0,-3.3464 -1.845,-5.9636 -4.161,-5.9636 -0.666,0 -0.837,0.1504 -0.837,0.7722 0,0.3008 0.171,1.2016 0.471,1.2016 0.322,0 0.73,-0.8586 1.33,-0.8586 0.902,0 1.502,1.2227 1.502,3.1113 l 0,12.6567"
         style="fill:#231f20;fill-opacity:1;fill-rule:nonzero;stroke:none"
         id="path3211"
         inkscape:connector-curvature="0" /><path
         d="m 161.475,44.877 c -0.151,-0.3 0,-0.386 0.279,-0.386 l 4.247,0 c 0.472,0 0.45,0.1496 0.343,0.4285 l -2.103,5.1703 c -0.106,0.2575 -0.214,0.2575 -0.343,0 l -2.423,-5.2128 z m 5.792,-2.1454 c -0.214,0.4938 -0.344,0.8153 -0.944,0.8153 l -4.72,0 c -0.408,0 -0.793,0 -1.008,-0.4504 l -1.372,-3.0035 c -0.066,-0.15 -0.151,-0.4715 -0.151,-0.7508 0,-1.5012 1.523,-0.8582 1.523,-1.4156 0,-0.3864 -0.301,-0.3219 -0.579,-0.3219 -0.601,0 -1.202,0.0859 -1.802,0.0859 -0.579,0 -1.159,-0.0859 -1.716,-0.0859 -0.129,0 -0.194,0.1074 -0.194,0.2363 0,0.45 1.009,0.0856 1.566,1.3082 l 5.128,10.9406 c 1.266,2.7028 1.329,3.0461 1.608,3.0461 0.236,0 0.386,-0.6222 0.451,-0.7933 l 4.463,-11.0485 c 0.321,-0.7933 0.579,-1.6945 1.072,-2.4453 0.643,-0.9863 1.887,-0.5148 1.887,-1.0508 0,-0.1933 -0.149,-0.1933 -0.3,-0.1933 -0.879,0 -1.759,0.0859 -2.639,0.0859 -0.579,0 -1.158,-0.0859 -1.737,-0.0859 -0.129,0 -0.472,0 -0.472,0.2148 0,0.5145 1.287,0.2996 1.287,1.1153 0,0.4714 -0.45,1.4586 -0.665,2.0375 l -0.686,1.7593"
         style="fill:#231f20;fill-opacity:1;fill-rule:nonzero;stroke:none"
         id="path3213"
         inkscape:connector-curvature="0" /><path
         d="m 156.174,28.5215 3.134,3.1133 c 0.255,0.2558 0.49,0.4906 0.874,0.4906 0.405,0 0.682,-0.4055 0.682,-0.7895 0,-0.5117 -0.81,-0.8523 -1.173,-1.0867 l -2.771,-1.7277 -0.746,0"
         style="fill:#231f20;fill-opacity:1;fill-rule:nonzero;stroke:none"
         id="path3215"
         inkscape:connector-curvature="0" /></g></g></svg>