<?xml version="1.0" encoding="UTF-8" standalone="no"?>
<svg
   xmlns:dc="http://purl.org/dc/elements/1.1/"
   xmlns:cc="http://creativecommons.org/ns#"
   xmlns:rdf="http://www.w3.org/1999/02/22-rdf-syntax-ns#"
   xmlns:svg="http://www.w3.org/2000/svg"
   xmlns="http://www.w3.org/2000/svg"
   xmlns:sodipodi="http://sodipodi.sourceforge.net/DTD/sodipodi-0.dtd"
   xmlns:inkscape="http://www.inkscape.org/namespaces/inkscape"
   height="1115.2007"
   width="1262.2"
   id="svg3381"
   version="1.1"
   inkscape:version="0.91 r13725"
   sodipodi:docname="sunset.svg">
  <metadata
     id="metadata3389">
    <rdf:RDF>
      <cc:Work
         rdf:about="">
        <dc:format>image/svg+xml</dc:format>
        <dc:type
           rdf:resource="http://purl.org/dc/dcmitype/StillImage" />
        <dc:title></dc:title>
      </cc:Work>
    </rdf:RDF>
  </metadata>
  <defs
     id="defs3387" />
  <sodipodi:namedview
     pagecolor="#ffffff"
     bordercolor="#666666"
     borderopacity="1"
     objecttolerance="10"
     gridtolerance="10"
     guidetolerance="10"
     inkscape:pageopacity="0"
     inkscape:pageshadow="2"
     inkscape:window-width="1916"
     inkscape:window-height="1041"
     id="namedview3385"
     showgrid="false"
     fit-margin-top="0"
     fit-margin-left="0"
     fit-margin-right="0"
     fit-margin-bottom="0"
     inkscape:zoom="0.61659711"
     inkscape:cx="638.82067"
     inkscape:cy="456.66793"
     inkscape:window-x="1920"
     inkscape:window-y="37"
     inkscape:window-maximized="0"
     inkscape:current-layer="svg3381" />
  <path
     d="m 0,630.80067 q 0,-21.5 15.6,-35.1 13.7,-13.7 35.6,-13.7 l 120.1,0 q 21,0 35,13.9 14,13.9 13.9,34.9 0,21.5 -13.9,36.6 -13.9,15.1 -35,15.2 l -120.1,0 q -21,0 -36.1,-15.4 -15.1,-15.4 -15.1,-36.4 z m 171.3,-409.2 q 0,-21.4 13.7,-35.1 15.6,-15.6 36.1,-15.6 22.5,0 35.2,15.6 l 85,84.9 q 36.1,34.2 0,70.4 -14.7,14.6 -34.2,14.6 -17.1,0 -35.2,-14.6 l -86.9,-85 q -13.7,-14.7 -13.7,-35.2 z m 102.6,691.4 q 0,-20.5 15.6,-36.1 14.2,-14.2 35.2,-14.2 l 167.4,0 q 8.3,0 14.7,4 l 122.6,115.7 124.5,-115.7 q 5.3,-4 15.1,-4 l 171.9,0 q 21,0 35.9,14.7 14.9,14.7 14.9,35.6 0,20.9 -14.9,35.9 -14.9,15 -35.9,14.9 l -139.7,0 -163.1,148.00003 q -9.7,6.8 -17.5,0 l -160.7,-148.00003 -135.2,0 q -21,0 -35.9,-14.9 -14.9,-14.9 -14.9,-35.9 z m 48.8,-282.2 q 0,76.7 30.8,136.7 3.9,8.3 13.6,8.3 l 97.2,0 q 6.4,0 7.8,-3.9 1.4,-3.9 -3.9,-9.2 -46.4,-58.2 -46.4,-131.9 0,-85.9 61.6,-146.2 61.6,-60.3 148.4,-60.3 85.9,0 147.2,60.5 61.3,60.5 61.3,146 0,74.2 -45.9,131.9 -5.4,5.3 -3.9,9.2 1.5,3.9 7.8,3.9 l 98.1,0 q 9.8,0 12.2,-8.3 32.3,-61 32.3,-136.7 0,-62 -24.7,-119.4 -24.7,-57.4 -66.1,-98.8 -41.4,-41.4 -98.7,-66.2 -57.3,-24.8 -119.6,-24.7 -62.3,0.1 -119.6,24.7 -57.3,24.6 -98.7,66.2 -41.4,41.6 -66.1,98.8 -24.7,57.2 -24.7,119.4 z m 258.3,-459 0,-121.100003 q 0,-21 14.9,-35.9 Q 610.8,-0.09933333 631.8,6.6666667e-4 652.8,0.10066667 667.7,14.800667 q 14.9,14.7 14.9,35.9 l 0,121.100003 q 0,21 -14.9,35.9 -14.9,14.9 -35.9,14.9 -21,0 -35.9,-14.9 -14.9,-14.9 -14.9,-35.9 z m 327.2,134.8 q 0,-22.5 13.1,-35.2 l 85,-84.9 q 12.7,-15.6 35.2,-15.6 21.4,0 35.9,14.8 14.5,14.8 14.4,35.9 0,21.5 -13.7,35.2 l -86.4,85 q -18.1,14.6 -36.2,14.6 -20.5,0 -33.9,-14.4 -13.4,-14.4 -13.4,-35.4 z m 134.2,324.2 q 0,-21 14,-34.9 14,-13.9 34.9,-13.9 l 120.1,0 q 21,0 35.9,14.1 14.9,14.1 14.9,34.7 0,21 -14.9,36.4 -14.9,15.4 -35.9,15.4 l -120.1,0 q -21,0 -34.9,-15.2 -13.9,-15.2 -14,-36.6 z"
     id="path3383"
     inkscape:connector-curvature="0" />
</svg>
